<svg width="25" height="18" viewBox="0 0 25 18" fill="none" xmlns="http://www.w3.org/2000/svg">
<path d="M24.448 4.09234C24.2955 3.87933 24.0909 3.77282 23.8341 3.77282H7.48756L7.0439 2.61782C6.93156 2.23913 6.77908 1.91568 6.58649 1.64744C6.39389 1.37921 6.18926 1.18987 5.97259 1.07942C5.75592 0.968973 5.56734 0.894025 5.40684 0.854579C5.24635 0.815133 5.08585 0.79541 4.92536 0.79541H1.62717C1.41852 0.79541 1.24198 0.866413 1.09753 1.00842C0.953083 1.15042 0.880859 1.33188 0.880859 1.55277C0.880859 1.679 0.912959 1.80128 0.977157 1.91962C1.04136 2.03796 1.13364 2.12869 1.25401 2.1918C1.37438 2.25491 1.49877 2.28647 1.62717 2.28647H4.92536C4.98955 2.28647 5.04974 2.29436 5.10591 2.31014C5.16209 2.32592 5.23832 2.39297 5.33462 2.51131C5.43092 2.62965 5.51117 2.80716 5.57537 3.04383L9.02832 12.5251C9.06042 12.6197 9.11258 12.7105 9.1848 12.7973C9.25703 12.884 9.34129 12.9511 9.43758 12.9984C9.53388 13.0458 9.6382 13.0694 9.75055 13.0694H20.1507C20.3112 13.0694 20.4596 13.0221 20.5961 12.9274C20.7325 12.8328 20.8248 12.7144 20.8729 12.5724L24.5563 4.79053C24.6365 4.53808 24.6004 4.30534 24.448 4.09234ZM19.621 11.5547H10.3524L7.89682 5.28755H22.7266L19.621 11.5547ZM18.2328 13.8908C17.7031 13.8908 17.2497 14.0762 16.8726 14.447C16.4954 14.8178 16.3068 15.2635 16.3068 15.7842C16.3068 16.3049 16.4954 16.7506 16.8726 17.1214C17.2497 17.4922 17.7031 17.6776 18.2328 17.6776C18.7624 17.6776 19.2158 17.4922 19.593 17.1214C19.9701 16.7506 20.1587 16.3049 20.1587 15.7842C20.1587 15.2635 19.9701 14.8178 19.593 14.447C19.2158 14.0762 18.7624 13.8908 18.2328 13.8908ZM11.2993 13.8908C10.9462 13.8908 10.6212 13.9776 10.3243 14.1511C10.0274 14.3247 9.79469 14.5535 9.62617 14.8375C9.45765 15.1215 9.37339 15.4371 9.37339 15.7842C9.37339 16.3049 9.56197 16.7506 9.93913 17.1214C10.3163 17.4922 10.7697 17.6776 11.2993 17.6776C11.829 17.6776 12.2824 17.4922 12.6595 17.1214C13.0367 16.7506 13.2253 16.3049 13.2253 15.7842C13.2253 15.658 13.2133 15.5318 13.1892 15.4055C13.1651 15.2793 13.129 15.161 13.0808 15.0505C13.0327 14.9401 12.9725 14.8336 12.9003 14.731C12.8281 14.6284 12.7478 14.5338 12.6595 14.447C12.5713 14.3602 12.475 14.2813 12.3706 14.2103C12.2663 14.1393 12.158 14.0801 12.0456 14.0328C11.9333 13.9855 11.8129 13.95 11.6845 13.9263C11.5561 13.9026 11.4277 13.8908 11.2993 13.8908Z" fill="white"/>
</svg>
